<svg width="142" height="41" viewBox="0 0 142 41" fill="none" xmlns="http://www.w3.org/2000/svg">
<path d="M34.1021 13.7395L22.1137 32.0006C21.8103 32.4662 21.2929 32.7632 20.7294 32.796C20.695 32.7985 20.6596 32.7993 20.6244 32.7993C20.0938 32.7993 19.5959 32.5689 19.2596 32.1669L6.33057 16.7424C4.95194 15.0981 4.31071 13.0261 4.5248 10.909C4.73806 8.79201 5.78109 6.88273 7.46242 5.53369C9.14355 4.18464 11.2602 3.55717 13.4246 3.76585C15.4834 3.96428 17.3489 4.89904 18.7135 6.40674C18.8314 6.53712 18.9416 6.67405 19.0451 6.8157L20.01 8.13789C20.7713 9.046 20.4273 10.4932 19.136 10.9024C18.415 11.0826 17.7155 10.8497 17.2791 10.3305L16.1867 8.83281C15.4059 7.90195 14.3013 7.32326 13.0769 7.20539C11.8524 7.08588 10.6542 7.44215 9.70204 8.20615C8.75076 8.96933 8.16043 10.0502 8.03977 11.2484C7.91826 12.4466 8.28172 13.62 9.06164 14.5508L20.4464 28.1327L31.1251 11.88C31.6493 11.0766 32.7432 10.8401 33.5642 11.3528C34.3843 11.8656 34.6263 12.9361 34.1021 13.7395Z" fill="#EE7056"/>
<path d="M37.7212 26.4399C38.7321 26.0531 39.6911 26.5947 40.0541 27.3424C40.4428 28.1419 41.3243 29.0186 42.9313 29.0186C44.4606 29.0186 45.5232 28.2966 45.5493 27.1361C45.5752 26.3367 45.2123 25.6407 43.3978 25.1248L41.2464 24.5317C37.3064 23.3198 36.6325 21.0765 36.6325 19.4776C36.6325 16.306 39.3541 14.1657 42.7757 14.1657C45.3419 14.1657 47.2599 15.2745 48.2191 17.1312C48.6596 17.982 48.2968 18.8072 47.6488 19.2198C46.7157 19.8129 45.8862 19.5551 45.264 18.7814C44.5124 17.8274 43.5273 17.5436 42.7239 17.5436C41.402 17.5436 40.4169 18.3173 40.4169 19.3745C40.4169 19.8387 40.5983 20.6896 42.3351 21.1795L44.4606 21.7984C48.7893 23.036 49.4114 25.4601 49.3596 27.1619C49.3078 30.6948 46.0936 32.3707 42.9313 32.3707C39.7688 32.3707 37.4879 30.8493 36.7104 28.5545C36.4251 27.652 36.8398 26.775 37.7212 26.4399Z" fill="#11181C"/>
<path d="M59.9613 25.718C59.9613 24.145 58.8209 23.3456 57.7322 23.3456C56.5915 23.3456 55.3474 23.9387 55.3474 25.7695V30.669C55.3474 31.5715 54.5179 32.2677 53.533 32.2677C52.5738 32.2677 51.7443 31.5455 51.7184 30.669V15.0167C51.7443 14.1399 52.5738 13.418 53.533 13.418C54.5179 13.418 55.3474 14.1142 55.3474 15.0167V21.979C55.8399 20.4833 57.5766 19.8644 58.7171 19.8644C61.9054 19.8644 63.5904 21.9532 63.5904 25.5889V30.669C63.5904 31.5715 62.7608 32.2677 61.7757 32.2677C60.8167 32.2677 59.9872 31.5455 59.9613 30.669V25.718Z" fill="#11181C"/>
<path d="M65.9488 26.0788C65.9488 22.2883 68.7741 19.8644 72.2994 19.8644C75.8246 19.8644 78.6759 22.2883 78.6759 26.0788C78.6759 29.8694 75.8246 32.3707 72.2994 32.3707C68.7741 32.3707 65.9488 29.8694 65.9488 26.0788ZM75.0471 26.0788C75.0471 24.4544 73.8028 23.3456 72.2994 23.3456C70.8218 23.3456 69.5778 24.4544 69.5778 26.0788C69.5778 27.7293 70.8218 28.8896 72.2994 28.8896C73.8028 28.8896 75.0471 27.7293 75.0471 26.0788Z" fill="#11181C"/>
<path d="M88.448 19.8644C91.5325 19.8644 94.3318 22.1078 94.3318 26.1048C94.3318 30.1016 91.5325 32.3707 88.448 32.3707C87.0742 32.3707 85.5967 31.7003 84.819 30.4369V36.4193C84.7931 37.296 83.9635 38.018 83.0046 38.018C82.0197 38.018 81.1902 37.3218 81.1902 36.4193V21.5664C81.1902 20.6639 82.0197 19.9677 83.0046 19.9677C83.9635 19.9677 84.7931 20.6896 84.819 21.5664V21.7984C85.8559 20.1996 87.6703 19.8644 88.448 19.8644ZM87.7482 23.0878C86.115 23.0878 84.7931 24.5317 84.7931 26.1306C84.7931 27.7293 86.115 29.1732 87.7482 29.1732C89.5626 29.1732 90.5994 27.7293 90.5994 26.1306C90.5994 24.5317 89.5626 23.0878 87.7482 23.0878Z" fill="#11181C"/>
<path d="M103.534 30.7461C103.171 31.7003 102.523 32.2675 101.538 32.2675H101.382C100.423 32.2675 99.6975 31.7003 99.3089 30.7461L95.6539 22.1851C95.3428 21.3599 95.8354 20.2768 96.7167 20.0448C97.8572 19.7612 98.6608 20.2768 98.9718 21.0763L101.434 27.5745L103.897 21.0763C104.182 20.2768 105.011 19.7612 106.152 20.0448C107.033 20.2768 107.526 21.3599 107.215 22.1851L103.534 30.7461Z" fill="#11181C"/>
<path d="M111.128 13.5468C112.347 13.5468 113.332 14.4493 113.332 15.6353C113.332 16.8216 112.347 17.7499 111.128 17.7499C109.91 17.7499 108.873 16.8216 108.873 15.6353C108.873 14.4493 109.91 13.5468 111.128 13.5468ZM112.943 30.6688C112.943 31.5713 112.113 32.2677 111.128 32.2677C110.169 32.2677 109.34 31.5455 109.314 30.6688V21.5662C109.34 20.6896 110.169 19.9675 111.128 19.9675C112.113 19.9675 112.943 20.6637 112.943 21.5662V30.6688Z" fill="#11181C"/>
<path d="M117.064 20.0965V16.9507C117.09 16.0739 117.919 15.3518 118.879 15.3518C119.864 15.3518 120.693 16.0482 120.693 16.9507V20.0965H122.067C122.793 20.0965 123.363 20.7412 123.363 21.5148C123.363 22.2626 122.793 22.9072 122.067 22.933H120.693V30.6688C120.693 31.5713 119.864 32.2677 118.879 32.2677C117.919 32.2677 117.09 31.5455 117.064 30.6688V22.933H116.079C115.353 22.9072 114.783 22.2626 114.783 21.5148C114.783 20.7412 115.353 20.0965 116.079 20.0965H117.064Z" fill="#11181C"/>
<path d="M133.887 21.5662C133.913 20.6894 134.742 19.9675 135.701 19.9675C136.686 19.9675 137.516 20.6637 137.516 21.5662V30.6688C137.516 31.5713 136.686 32.2675 135.701 32.2675C134.742 32.2675 133.913 31.5453 133.887 30.6688V30.4367C133.109 31.7003 131.632 32.3705 130.258 32.3705C127.173 32.3705 124.374 30.1014 124.374 26.1046C124.374 22.1076 127.173 19.8642 130.258 19.8642C131.036 19.8642 132.85 20.1995 133.887 21.7982V21.5662ZM130.958 29.1732C132.591 29.1732 133.913 27.729 133.913 26.1304C133.913 24.5317 132.591 23.0876 130.958 23.0876C129.143 23.0876 128.107 24.5317 128.107 26.1304C128.107 27.729 129.143 29.1732 130.958 29.1732Z" fill="#11181C"/>
</svg>
